<svg xmlns="http://www.w3.org/2000/svg" width="1920" height="1080" viewBox="0 0 1920 1080" role="img" aria-labelledby="title desc">
  <title id="title">DropMong cloud-native architecture</title>
  <desc id="desc">A new cloud-native DropMong architecture showing CI/CD, GitOps, Kubernetes runtime, application services, data and event systems, and observability without public cloud provisioning.</desc>
  <defs>
    <linearGradient id="brandGradient" x1="0" y1="0" x2="1" y2="1">
      <stop offset="0%" stop-color="#5B3DF5"/>
      <stop offset="55%" stop-color="#7D5CFF"/>
      <stop offset="100%" stop-color="#B7A6FF"/>
    </linearGradient>
    <linearGradient id="pinkGradient" x1="0" y1="0" x2="1" y2="1">
      <stop offset="0%" stop-color="#FF7AC2"/>
      <stop offset="100%" stop-color="#FF5E7D"/>
    </linearGradient>
    <linearGradient id="surfaceGradient" x1="0" y1="0" x2="1" y2="1">
      <stop offset="0%" stop-color="#FFFFFF"/>
      <stop offset="100%" stop-color="#F6F3FF"/>
    </linearGradient>
    <filter id="softShadow" x="-15%" y="-18%" width="130%" height="145%">
      <feDropShadow dx="0" dy="16" stdDeviation="20" flood-color="#111827" flood-opacity="0.11"/>
    </filter>
    <filter id="tinyShadow" x="-12%" y="-12%" width="124%" height="132%">
      <feDropShadow dx="0" dy="8" stdDeviation="10" flood-color="#111827" flood-opacity="0.09"/>
    </filter>
    <marker id="arrowPurple" markerWidth="12" markerHeight="12" refX="10" refY="6" orient="auto" markerUnits="strokeWidth">
      <path d="M2,2 L10,6 L2,10 Z" fill="#5B3DF5"/>
    </marker>
    <marker id="arrowPink" markerWidth="12" markerHeight="12" refX="10" refY="6" orient="auto" markerUnits="strokeWidth">
      <path d="M2,2 L10,6 L2,10 Z" fill="#FF7AC2"/>
    </marker>
    <marker id="arrowInk" markerWidth="12" markerHeight="12" refX="10" refY="6" orient="auto" markerUnits="strokeWidth">
      <path d="M2,2 L10,6 L2,10 Z" fill="#111827"/>
    </marker>
    <style>
      text { font-family: "Apple SD Gothic Neo", "Pretendard", sans-serif; letter-spacing: 0; }
      .bg { fill: #FFFFFF; }
      .title { font-size: 54px; font-weight: 800; fill: #111827; }
      .subtitle { font-size: 22px; font-weight: 600; fill: #374151; }
      .eyebrow { font-size: 17px; font-weight: 800; fill: #5B3DF5; letter-spacing: 5px; }
      .section { font-size: 21px; font-weight: 800; fill: #5B3DF5; letter-spacing: 1.2px; }
      .cluster-title { font-size: 30px; font-weight: 800; fill: #111827; }
      .cluster-subtitle { font-size: 17px; font-weight: 600; fill: #687280; }
      .node-title { font-size: 21px; font-weight: 800; fill: #111827; }
      .node-body { font-size: 15px; font-weight: 600; fill: #687280; }
      .tiny { font-size: 13px; font-weight: 700; fill: #687280; }
      .white-title { font-size: 21px; font-weight: 800; fill: #FFFFFF; }
      .white-body { font-size: 15px; font-weight: 600; fill: #F5F2FF; }
      .legend { font-size: 15px; font-weight: 800; fill: #374151; }
      .card { fill: #FFFFFF; stroke: #E2E4F7; stroke-width: 1.6; rx: 16; filter: url(#tinyShadow); }
      .soft-card { fill: #F8F5FF; stroke: #D8CCFF; stroke-width: 1.8; rx: 16; filter: url(#tinyShadow); }
      .pink-card { fill: #FFF1F8; stroke: #FFB6D9; stroke-width: 1.8; rx: 16; filter: url(#tinyShadow); }
      .dark-card { fill: #111827; stroke: #111827; stroke-width: 1.8; rx: 16; filter: url(#tinyShadow); }
      .group { fill: #FFFFFF; stroke: #E2E4F7; stroke-width: 2; rx: 26; filter: url(#softShadow); }
      .group-soft { fill: url(#surfaceGradient); stroke: #D8CCFF; stroke-width: 2; rx: 28; filter: url(#softShadow); }
      .chip { fill: #F8F5FF; stroke: #D8CCFF; stroke-width: 1.4; rx: 13; }
      .line { fill: none; stroke: #5B3DF5; stroke-width: 4; stroke-linecap: round; stroke-linejoin: round; marker-end: url(#arrowPurple); }
      .line-thin { fill: none; stroke: #5B3DF5; stroke-width: 3; stroke-linecap: round; stroke-linejoin: round; marker-end: url(#arrowPurple); }
      .line-dark { fill: none; stroke: #111827; stroke-width: 3.2; stroke-linecap: round; stroke-linejoin: round; marker-end: url(#arrowInk); }
      .event-line { fill: none; stroke: #FF7AC2; stroke-width: 3.2; stroke-linecap: round; stroke-linejoin: round; stroke-dasharray: 9 9; marker-end: url(#arrowPink); }
      .signal-line { fill: none; stroke: #B7A6FF; stroke-width: 3; stroke-linecap: round; stroke-linejoin: round; stroke-dasharray: 7 9; marker-end: url(#arrowPurple); }
    </style>
  </defs>

  <rect class="bg" width="1920" height="1080"/>
  <path d="M0 800C210 720 260 900 470 845C720 780 850 742 1110 778C1390 816 1590 720 1920 668V1080H0Z" fill="#F6F1FF"/>
  <path d="M1630 0C1530 104 1492 192 1494 330C1496 450 1562 554 1680 594C1768 624 1846 606 1920 552V0Z" fill="#EFE8FF"/>
  <circle cx="1768" cy="162" r="46" fill="url(#brandGradient)" opacity="0.82"/>
  <circle cx="1128" cy="175" r="18" fill="#7D5CFF" opacity="0.78"/>
  <path d="M1128 132C1138 158 1145 165 1171 175C1145 185 1138 192 1128 218C1118 192 1111 185 1085 175C1111 165 1118 158 1128 132Z" fill="#7D5CFF" opacity="0.82"/>
  <path d="M164 170L224 135L284 170V240L224 275L164 240Z" fill="url(#brandGradient)" opacity="0.96"/>
  <path d="M224 135V204L164 240V170Z" fill="#7D5CFF" opacity="0.74"/>
  <path d="M224 204L284 170V240L224 275Z" fill="#3E18D6" opacity="0.72"/>
  <path d="M197 185L224 169L252 185V220L224 237L197 220Z" fill="#FFFFFF" opacity="0.92"/>

  <text x="326" y="178" class="title" style="font-size:38px;">DropMong</text>
  <text x="326" y="222" class="eyebrow">CLOUD NATIVE ARCHITECTURE</text>
  <text x="88" y="316" class="title">쿠버네티스 기반</text>
  <text x="88" y="382" class="title">운영 아키텍처</text>
  <text x="92" y="434" class="subtitle">서비스, CI/CD, 관측성을 하나의</text>
  <text x="92" y="468" class="subtitle">클라우드 네이티브 런타임으로 정리합니다.</text>

  <rect x="88" y="480" width="148" height="38" rx="9" fill="#5B3DF5"/>
  <text x="162" y="505" text-anchor="middle" class="white-body">Kubernetes</text>
  <rect x="248" y="480" width="96" height="38" rx="9" fill="#111827"/>
  <text x="296" y="505" text-anchor="middle" class="white-body">CI/CD</text>
  <rect x="356" y="480" width="118" height="38" rx="9" fill="url(#pinkGradient)"/>
  <text x="415" y="505" text-anchor="middle" class="white-body">Observability</text>

  <rect x="76" y="720" width="378" height="210" class="group-soft"/>
  <text x="112" y="770" class="section">ARCHITECTURE SCOPE</text>
  <text x="112" y="818" class="node-title">포함</text>
  <text x="112" y="850" class="node-body">서비스 런타임 · 배포 동기화 · 트래픽 정책</text>
  <text x="112" y="885" class="node-body">메트릭 · 로그 · 트레이스 · 알림</text>
  <text x="112" y="922" class="node-title">제외</text>
  <text x="166" y="922" class="node-body">Terraform, VPC, managed cloud provisioning</text>

  <rect x="540" y="72" width="1236" height="132" class="group"/>
  <text x="580" y="122" class="section">01 CI/CD &amp; GITOPS DELIVERY</text>
  <rect x="580" y="146" width="154" height="52" class="soft-card"/>
  <text x="657" y="178" text-anchor="middle" class="node-title">GitHub</text>
  <rect x="784" y="146" width="202" height="52" class="card"/>
  <text x="885" y="170" text-anchor="middle" class="node-title">GitHub Actions</text>
  <text x="885" y="190" text-anchor="middle" class="tiny">test · build · scan</text>
  <rect x="1036" y="146" width="212" height="52" class="card"/>
  <text x="1142" y="170" text-anchor="middle" class="node-title">Container Registry</text>
  <text x="1142" y="190" text-anchor="middle" class="tiny">service images</text>
  <rect x="1298" y="146" width="156" height="52" class="dark-card"/>
  <text x="1376" y="178" text-anchor="middle" class="white-title">GitOps Repo</text>
  <rect x="1504" y="146" width="184" height="52" class="soft-card"/>
  <text x="1596" y="170" text-anchor="middle" class="node-title">Argo CD</text>
  <text x="1596" y="190" text-anchor="middle" class="tiny">sync desired state</text>
  <path d="M734 172H778" class="line-dark"/>
  <path d="M986 172H1030" class="line-dark"/>
  <path d="M1248 172H1292" class="line-dark"/>
  <path d="M1454 172H1498" class="line-dark"/>

  <rect x="540" y="260" width="1236" height="642" class="group-soft"/>
  <text x="584" y="314" class="cluster-title">Kubernetes Cluster</text>
  <text x="584" y="346" class="cluster-subtitle">Ingress, service mesh policy, candidate services, data/event systems, and telemetry collection</text>

  <rect x="584" y="386" width="220" height="94" class="pink-card"/>
  <text x="694" y="424" text-anchor="middle" class="node-title">사용자 / 운영자</text>
  <text x="694" y="454" text-anchor="middle" class="node-body">drop browse · order · admin</text>

  <rect x="876" y="370" width="346" height="124" class="group"/>
  <text x="1049" y="414" text-anchor="middle" class="section">EDGE &amp; TRAFFIC</text>
  <rect x="916" y="438" width="132" height="42" rx="10" fill="#5B3DF5"/>
  <text x="982" y="465" text-anchor="middle" class="white-body">Ingress</text>
  <rect x="1070" y="438" width="112" height="42" rx="10" fill="#FFFFFF" stroke="#B7A6FF" stroke-width="2"/>
  <text x="1126" y="457" text-anchor="middle" class="tiny">VirtualService</text>
  <text x="1126" y="474" text-anchor="middle" class="tiny">Retry · Canary</text>

  <rect x="1310" y="370" width="390" height="124" class="group"/>
  <text x="1505" y="414" text-anchor="middle" class="section">DEPLOYMENT UNITS</text>
  <rect x="1350" y="438" width="132" height="42" rx="10" fill="#FFFFFF" stroke="#D8CCFF" stroke-width="2"/>
  <text x="1416" y="465" text-anchor="middle" class="node-body">Helm Chart</text>
  <rect x="1506" y="438" width="154" height="42" rx="10" fill="#FFFFFF" stroke="#D8CCFF" stroke-width="2"/>
  <text x="1583" y="465" text-anchor="middle" class="node-body">K8s Manifests</text>

  <rect x="584" y="546" width="700" height="170" class="group"/>
  <text x="934" y="592" text-anchor="middle" class="section">APPLICATION SERVICES</text>
  <rect x="622" y="626" width="108" height="58" class="soft-card"/>
  <text x="676" y="660" text-anchor="middle" class="node-title">auth</text>
  <rect x="756" y="626" width="122" height="58" class="soft-card"/>
  <text x="817" y="660" text-anchor="middle" class="node-title">catalog</text>
  <rect x="904" y="626" width="112" height="58" class="pink-card"/>
  <text x="960" y="660" text-anchor="middle" class="node-title">order</text>
  <rect x="1042" y="626" width="124" height="58" class="soft-card"/>
  <text x="1104" y="660" text-anchor="middle" class="node-title">payment</text>
  <rect x="1192" y="626" width="58" height="58" class="dark-card"/>
  <text x="1221" y="660" text-anchor="middle" class="white-title">noti</text>

  <rect x="1350" y="546" width="350" height="170" class="group"/>
  <text x="1525" y="592" text-anchor="middle" class="section">DATA &amp; EVENTS</text>
  <rect x="1388" y="626" width="116" height="58" class="card"/>
  <text x="1446" y="651" text-anchor="middle" class="node-title">PostgreSQL</text>
  <text x="1446" y="672" text-anchor="middle" class="tiny">service DB</text>
  <rect x="1524" y="626" width="88" height="58" class="card"/>
  <text x="1568" y="651" text-anchor="middle" class="node-title">MongoDB</text>
  <text x="1568" y="672" text-anchor="middle" class="tiny">notify</text>
  <rect x="1630" y="626" width="42" height="58" rx="12" fill="url(#pinkGradient)"/>
  <text x="1651" y="660" text-anchor="middle" class="white-title">K</text>

  <rect x="584" y="768" width="1116" height="92" class="group"/>
  <text x="624" y="823" class="section">OBSERVABILITY</text>
  <rect x="830" y="792" width="148" height="44" class="soft-card"/>
  <text x="904" y="820" text-anchor="middle" class="node-title">OTel Collector</text>
  <rect x="1014" y="792" width="124" height="44" class="card"/>
  <text x="1076" y="820" text-anchor="middle" class="node-title">Prometheus</text>
  <rect x="1174" y="792" width="78" height="44" class="card"/>
  <text x="1213" y="820" text-anchor="middle" class="node-title">Loki</text>
  <rect x="1288" y="792" width="88" height="44" class="card"/>
  <text x="1332" y="820" text-anchor="middle" class="node-title">Tempo</text>
  <rect x="1412" y="792" width="102" height="44" class="pink-card"/>
  <text x="1463" y="820" text-anchor="middle" class="node-title">Grafana</text>
  <rect x="1550" y="792" width="116" height="44" class="card"/>
  <text x="1608" y="820" text-anchor="middle" class="node-title">Alertmanager</text>

  <path d="M804 433H910" class="line"/>
  <path d="M1048 459H1064" class="line-thin"/>
  <path d="M1126 480V618H676" class="line-thin"/>
  <path d="M1126 618H817" class="line-thin"/>
  <path d="M1126 618H960" class="line-thin"/>
  <path d="M1126 618H1104" class="line-thin"/>
  <path d="M1126 618H1221" class="line-thin"/>
  <path d="M1596 198V300C1596 334 1572 346 1540 346H1505V432" class="line-dark"/>
  <path d="M1505 480V534" class="line-dark"/>

  <path d="M960 684V742H1388V655" class="line-thin"/>
  <path d="M1104 684V734H1446V690" class="line-thin"/>
  <path d="M1221 684V734H1568V690" class="line-thin"/>
  <path d="M960 626C1010 560 1540 558 1626 648" class="event-line"/>
  <path d="M1104 626C1162 568 1560 568 1628 656" class="event-line"/>
  <path d="M1672 655C1586 738 1326 750 1112 686" class="event-line"/>

  <path d="M676 684V786" class="signal-line"/>
  <path d="M817 684V786" class="signal-line"/>
  <path d="M960 684V786" class="signal-line"/>
  <path d="M1104 684V786" class="signal-line"/>
  <path d="M1221 684V786" class="signal-line"/>
  <path d="M978 814H1008" class="line-thin"/>
  <path d="M1138 814H1168" class="line-thin"/>
  <path d="M1252 814H1282" class="line-thin"/>
  <path d="M1376 814H1406" class="line-thin"/>
  <path d="M1514 814H1544" class="line-thin"/>
  <path d="M1138 814C1244 748 1380 748 1442 788" class="line-thin"/>
  <path d="M1138 814C1300 892 1508 892 1580 838" class="line-thin"/>

  <rect x="584" y="922" width="1116" height="78" rx="20" fill="#FFFFFF" stroke="#E2E4F7" stroke-width="1.8"/>
  <circle cx="630" cy="961" r="14" fill="#5B3DF5"/>
  <text x="660" y="967" class="legend">실선: 요청/배포/저장</text>
  <circle cx="844" cy="961" r="14" fill="#FF7AC2"/>
  <text x="874" y="967" class="legend">점선 분홍: 도메인 이벤트</text>
  <circle cx="1116" cy="961" r="14" fill="#B7A6FF"/>
  <text x="1146" y="967" class="legend">점선 보라: telemetry signal</text>
  <rect x="1410" y="940" width="248" height="42" rx="12" fill="#111827"/>
  <text x="1534" y="967" text-anchor="middle" class="white-body">No public cloud provisioning</text>
</svg>
